# This file uses centimeters as units for non-parametric coordinates.

mtllib Cloud.mtl
g default
v -0.000000 1.995211 -12.637717
v 13.865741 4.816877 -3.829459
v -5.296243 6.178253 -5.753959
v -17.139001 -2.484756 -3.731652
v -5.296243 -4.932524 -5.753958
v 13.865742 -2.235616 -3.829459
v 17.139001 0.000000 3.731652
v 5.296242 4.826615 3.502841
v -13.865742 1.782342 3.731652
v -13.865742 -4.257042 3.731651
v 5.296243 -6.643503 3.502841
v 0.000000 -4.298486 8.344226
v -0.000001 7.918498 -1.424471
v 10.997474 6.561944 -0.150647
v -17.794291 -0.376628 -0.000000
v -10.997476 3.194556 -0.150647
v -10.997474 -5.868896 -0.150647
v -17.794288 -3.851978 -0.000000
v 10.997475 -4.126623 -0.150647
v 0.000000 -6.048994 -1.424471
v 17.794290 1.869273 0.000000
v 17.794288 -1.714683 0.000000
v 12.876069 2.894659 4.283350
v -4.918221 2.398558 4.094532
v -15.915695 -1.277895 4.283350
v -4.918218 -6.836160 4.094532
v 12.876070 -3.040443 4.283350
v 3.039627 -0.404690 6.912133
v 9.836442 -1.390258 6.930606
v -7.957848 -0.539310 6.930606
v -7.957847 -3.965165 6.930606
v 3.039629 -6.371217 6.912133
v -3.039628 4.796936 -10.522608
v 4.918220 9.209962 -6.602991
v 7.957847 5.485058 -9.073685
v -9.836442 -1.102295 -8.403206
v -12.876069 0.881552 -4.565402
v -3.039628 -1.851615 -10.522608
v -12.876070 -4.741682 -4.565402
v 7.957846 0.968109 -9.073685
v 4.918219 -2.602483 -6.602991
v 15.915694 0.766660 -4.283350
v 3.501737 7.333783 -9.809779
v -9.167669 1.201001 -8.075564
v -9.167669 -2.967279 -8.075564
v 3.501736 -1.034043 -9.809779
v 11.331860 2.488752 -7.368837
v 5.665930 9.264104 -2.858936
v -14.833599 1.190752 -1.524857
v -14.833599 -5.287375 -1.524858
v 5.665930 -4.306084 -2.858936
v 18.335336 0.090048 -1.524857
v 14.833599 3.772423 1.524857
v -5.665931 4.409048 0.936397
v -18.335336 -1.886850 1.524857
v -5.665930 -6.572695 0.936397
v 14.833599 -3.142960 1.524857
v 9.167669 0.674804 6.459400
v -3.501738 -0.064594 6.423478
v -11.331861 -1.384299 6.459400
v -3.501736 -6.588834 6.423477
v 9.167669 -3.555008 6.459400
vt 1.001908 0.500000
vt 0.838104 0.648897
vt 1.088104 0.823792
vt 0.088104 0.823792
vt 1.176208 0.500000
vt 0.176208 0.500000
vt 1.088104 0.176208
vt 0.088104 0.176208
vt 0.838104 0.351103
vt 0.674300 0.500000
vt 0.588104 0.823792
vt 0.338104 0.648897
vt 0.338104 0.351103
vt 0.588104 0.176208
vt 0.501908 0.500000
vt 0.975403 0.666667
vt 1.088104 0.607931
vt 1.088104 0.392069
vt 0.975403 0.333333
vt 0.892069 0.500000
vt 0.838104 0.774597
vt 0.200805 0.666667
vt 0.200805 0.333333
vt 0.838104 0.225403
vt 0.784139 0.500000
vt 0.700805 0.666667
vt 0.338104 0.774597
vt 0.284139 0.500000
vt 0.338104 0.225403
vt 0.700805 0.333333
vt 0.588104 0.607931
vt 0.475403 0.666667
vt 0.392069 0.500000
vt 0.475403 0.333333
vt 0.588104 0.392069
vt 1.037903 0.649597
vt 0.934929 0.735316
vt 0.926394 0.585719
vt 1.088104 0.500000
vt 1.132156 0.661896
vt 0.132156 0.661896
vt 1.037903 0.350403
vt 1.132156 0.338104
vt 0.132156 0.338104
vt 0.926394 0.414281
vt 0.934929 0.264684
vt 0.838104 0.500000
vt 0.838104 0.823792
vt 0.338104 0.823792
vt 0.741279 0.735316
vt 0.249814 0.585719
vt 0.241279 0.735316
vt 0.241279 0.264684
vt 0.249814 0.414281
vt 0.741279 0.264684
vt 0.838104 0.176208
vt 0.338104 0.176208
vt 0.749814 0.585719
vt 0.749814 0.414281
vt 0.638305 0.649597
vt 0.434929 0.735316
vt 0.338104 0.500000
vt 0.434929 0.264684
vt 0.638305 0.350403
vt 0.537903 0.649597
vt 0.588104 0.500000
vt 0.426394 0.585719
vt 0.426394 0.414281
vt 0.537903 0.350403
vn -0.016102 0.010538 -0.999815
vn -0.281153 0.613577 -0.737887
vn 0.021382 0.803394 -0.595064
vn 0.391050 0.475085 -0.788273
vn -0.408228 0.893181 -0.188620
vn 0.068408 0.963555 -0.258614
vn 0.595991 0.732469 -0.329065
vn -0.469362 -0.011153 -0.882935
vn -0.541471 0.463864 -0.701170
vn -0.714833 -0.098736 -0.692289
vn -0.575438 0.679211 -0.455569
vn -0.002759 -0.662740 -0.748845
vn -0.250232 -0.647202 -0.720078
vn 0.039850 -0.904266 -0.425107
vn -0.237839 -0.849948 -0.470129
vn 0.382231 -0.367254 -0.847953
vn 0.232370 -0.701793 -0.673417
vn 0.337492 -0.781136 -0.525286
vn 0.205974 -0.833241 -0.513113
vn 0.543520 0.048586 -0.837989
vn 0.661717 -0.044984 -0.748403
vn 0.091878 0.986403 0.136266
vn 0.271082 0.897407 0.348102
vn -0.176327 0.915008 0.362862
vn -0.022980 0.748217 0.663057
vn -0.533746 0.818510 -0.212502
vn -0.389974 0.915263 0.101068
vn -0.724028 0.684567 -0.084566
vn -0.295112 0.829711 0.473803
vn -0.251952 -0.957834 -0.138106
vn -0.615090 -0.782984 0.092733
vn -0.143021 -0.988064 -0.057227
vn -0.379710 -0.788538 0.483765
vn 0.180822 -0.903808 -0.387859
vn 0.085370 -0.953424 -0.289299
vn 0.262267 -0.938115 -0.226180
vn 0.186910 -0.982325 -0.010107
vn 0.911599 -0.071530 -0.404809
vn 0.645572 -0.760870 -0.065679
vn 0.779318 0.623679 0.060729
vn 0.637354 0.064710 0.767849
vn 0.428552 0.814175 0.391743
vn 0.223835 0.642023 0.733283
vn -0.244371 0.861181 0.445701
vn -0.111107 0.740133 0.663218
vn -0.909222 -0.059173 0.412084
vn -0.580470 0.064527 0.811721
vn -0.070503 -0.992702 -0.097836
vn -0.116408 -0.985347 0.124662
vn 0.421095 -0.903246 0.082626
vn 0.455417 -0.780860 0.427613
vn 0.124287 0.464714 0.876695
vn 0.240147 0.038154 0.969986
vn -0.009163 0.473261 0.880875
vn 0.016055 -0.170189 0.985281
vn -0.043286 0.573550 0.818026
vn -0.116718 0.451284 0.884715
vn -0.320659 0.023361 0.946907
vn -0.271303 -0.458608 0.846211
vn -0.132386 -0.866289 0.481682
vn 0.144067 -0.816414 0.559207
vn 0.347691 -0.577328 0.738785
s 1
g pPlatonic1
usemtl initialShadingGroup
f 1/1/1 33/36/2 43/16/3 35/38/4
f 3/3/5 34/37/6 43/16/3 33/36/2
f 2/2/7 35/38/4 43/16/3 34/37/6
f 1/1/1 36/39/8 44/17/9 33/36/2
f 4/5/10 37/40/11 44/17/9 36/39/8
f 3/3/5 33/36/2 44/17/9 37/40/11
f 1/1/1 38/42/12 45/18/13 36/39/8
f 5/7/14 39/43/15 45/18/13 38/42/12
f 4/5/10 36/39/8 45/18/13 39/43/15
f 1/1/1 40/45/16 46/19/17 38/42/12
f 6/9/18 41/46/19 46/19/17 40/45/16
f 5/7/14 38/42/12 46/19/17 41/46/19
f 1/1/1 35/38/4 47/20/20 40/45/16
f 2/2/7 42/47/21 47/20/20 35/38/4
f 6/9/18 40/45/16 47/20/20 42/47/21
f 2/2/7 34/37/6 48/21/22 14/50/23
f 3/3/5 13/48/24 48/21/22 34/37/6
f 8/11/25 14/50/23 48/21/22 13/48/24
f 3/4/5 37/41/11 49/22/26 16/52/27
f 4/6/10 15/51/28 49/22/26 37/41/11
f 9/12/29 16/52/27 49/22/26 15/51/28
f 4/6/10 39/44/15 50/23/30 18/54/31
f 5/8/14 17/53/32 50/23/30 39/44/15
f 10/13/33 18/54/31 50/23/30 17/53/32
f 5/7/14 41/46/19 51/24/34 20/56/35
f 6/9/18 19/55/36 51/24/34 41/46/19
f 11/14/37 20/56/35 51/24/34 19/55/36
f 6/9/18 42/47/21 52/25/38 22/59/39
f 2/2/7 21/58/40 52/25/38 42/47/21
f 7/10/41 22/59/39 52/25/38 21/58/40
f 2/2/7 14/50/23 53/26/42 21/58/40
f 8/11/25 23/60/43 53/26/42 14/50/23
f 7/10/41 21/58/40 53/26/42 23/60/43
f 3/4/5 16/52/27 54/27/44 13/49/24
f 9/12/29 24/61/45 54/27/44 16/52/27
f 8/11/25 13/49/24 54/27/44 24/61/45
f 4/6/10 18/54/31 55/28/46 15/51/28
f 10/13/33 25/62/47 55/28/46 18/54/31
f 9/12/29 15/51/28 55/28/46 25/62/47
f 5/8/14 20/57/35 56/29/48 17/53/32
f 11/14/37 26/63/49 56/29/48 20/57/35
f 10/13/33 17/53/32 56/29/48 26/63/49
f 6/9/18 22/59/39 57/30/50 19/55/36
f 7/10/41 27/64/51 57/30/50 22/59/39
f 11/14/37 19/55/36 57/30/50 27/64/51
f 7/10/41 23/60/43 58/31/52 29/66/53
f 8/11/25 28/65/54 58/31/52 23/60/43
f 12/15/55 29/66/53 58/31/52 28/65/54
f 8/11/25 24/61/45 59/32/56 28/65/54
f 9/12/29 30/67/57 59/32/56 24/61/45
f 12/15/55 28/65/54 59/32/56 30/67/57
f 9/12/29 25/62/47 60/33/58 30/67/57
f 10/13/33 31/68/59 60/33/58 25/62/47
f 12/15/55 30/67/57 60/33/58 31/68/59
f 10/13/33 26/63/49 61/34/60 31/68/59
f 11/14/37 32/69/61 61/34/60 26/63/49
f 12/15/55 31/68/59 61/34/60 32/69/61
f 11/14/37 27/64/51 62/35/62 32/69/61
f 7/10/41 29/66/53 62/35/62 27/64/51
f 12/15/55 32/69/61 62/35/62 29/66/53
