# This file uses centimeters as units for non-parametric coordinates.

mtllib Mountain.mtl
g default
v 11.225126 0.000000 -4.649592
v 8.591342 0.000000 -8.591332
v 4.649604 0.000000 -11.225120
v 0.000006 0.000000 -12.149985
v -4.649593 0.000000 -11.225125
v -8.591334 0.000000 -8.591341
v -11.225121 0.000000 -4.649603
v -12.149986 0.000000 -0.000004
v -11.225124 0.000000 4.649595
v -8.591339 0.000000 8.591335
v -4.649600 0.000000 11.225122
v -0.000002 0.000000 12.149986
v 4.649597 0.000000 11.225124
v 8.591336 0.000000 8.591338
v 11.225123 0.000000 4.649599
v 12.149986 0.000000 0.000000
v 0.735093 25.462885 -0.037342
v 0.714562 25.467974 -0.068999
v 0.683836 25.475596 -0.090151
v 0.647592 25.484589 -0.097579
v 0.611349 25.493578 -0.090151
v 0.580623 25.501199 -0.068999
v 0.560092 25.506289 -0.037342
v 0.552883 25.508079 0.000000
v 0.560092 25.506289 0.037342
v 0.580623 25.501199 0.069000
v 0.611349 25.493578 0.090152
v 0.647592 25.484589 0.097580
v 0.683836 25.475596 0.090152
v 0.714562 25.467974 0.069000
v 0.735093 25.462885 0.037342
v 0.742302 25.461095 0.000000
v 0.000000 0.000000 0.000000
v 0.647592 25.484589 0.000000
v 2.047865 19.594104 -1.150322
v 1.415421 19.750967 -2.125521
v 0.468903 19.985730 -2.777127
v -0.647591 20.262651 -3.005942
v -1.764085 20.539573 -2.777129
v -2.710605 20.774336 -2.125523
v -3.343049 20.931200 -1.150324
v -3.565133 20.986283 -0.000001
v -3.343050 20.931200 1.150323
v -2.710606 20.774337 2.125522
v -1.764087 20.539574 2.777129
v -0.647593 20.262652 3.005942
v 0.468901 19.985731 2.777129
v 1.415420 19.750967 2.125523
v 2.047865 19.594104 1.150324
v 2.269948 19.539021 0.000000
v 4.391560 15.773553 -1.832980
v 3.361155 15.645741 -3.386910
v 1.819045 15.454457 -4.425212
v 0.000002 15.228822 -4.789817
v -1.819040 15.003187 -4.425215
v -3.361152 14.811903 -3.386914
v -4.391558 14.684091 -1.832985
v -4.753388 14.639209 -0.000001
v -4.391559 14.684091 1.832982
v -3.361154 14.811903 3.386911
v -1.819043 15.003187 4.425214
v -0.000001 15.228822 4.789817
v 1.819042 15.454457 4.425215
v 3.361153 15.645741 3.386913
v 4.391559 15.773553 1.832984
v 4.753388 15.818434 0.000000
v 7.622817 10.775850 -2.640137
v 6.127443 10.796697 -4.878342
v 3.889458 10.827896 -6.373862
v 1.249574 10.864698 -6.899020
v -1.390311 10.901500 -6.373865
v -3.628298 10.932699 -4.878346
v -5.123674 10.953546 -2.640143
v -5.648780 10.960866 -0.000002
v -5.123675 10.953546 2.640139
v -3.628301 10.932699 4.878343
v -1.390315 10.901500 6.373864
v 1.249569 10.864698 6.899021
v 3.889454 10.827896 6.373864
v 6.127440 10.796697 4.878345
v 7.622815 10.775850 2.640141
v 8.147920 10.768530 0.000000
v 7.935225 3.526840 -3.482906
v 6.073360 4.179396 -6.435577
v 3.286880 5.156018 -8.408489
v 0.000004 6.308021 -9.101285
v -3.286873 7.460024 -8.408493
v -6.073354 8.436646 -6.435584
v -7.935221 9.089204 -3.482914
v -8.589023 9.318352 -0.000003
v -7.935224 9.089204 3.482909
v -6.073358 8.436648 6.435579
v -3.286878 7.460026 8.408492
v -0.000001 6.308022 9.101286
v 3.286876 5.156019 8.408492
v 6.073355 4.179397 6.435581
v 7.935222 3.526840 3.482911
v 8.589023 3.297693 0.000000
vt 0.644356 0.096456
vt 0.610485 0.045765
vt 0.559794 0.011894
vt 0.500000 0.000000
vt 0.440206 0.011894
vt 0.389515 0.045765
vt 0.355644 0.096456
vt 0.343750 0.156250
vt 0.355644 0.216044
vt 0.389515 0.266735
vt 0.440206 0.300606
vt 0.500000 0.312500
vt 0.559794 0.300606
vt 0.610485 0.266735
vt 0.644356 0.216044
vt 0.656250 0.156250
vt 0.375000 0.312500
vt 0.390625 0.312500
vt 0.406250 0.312500
vt 0.421875 0.312500
vt 0.437500 0.312500
vt 0.453125 0.312500
vt 0.468750 0.312500
vt 0.484375 0.312500
vt 0.500000 0.312500
vt 0.515625 0.312500
vt 0.531250 0.312500
vt 0.546875 0.312500
vt 0.562500 0.312500
vt 0.578125 0.312500
vt 0.593750 0.312500
vt 0.609375 0.312500
vt 0.625000 0.312500
vt 0.375000 0.688440
vt 0.390625 0.688440
vt 0.406250 0.688440
vt 0.421875 0.688440
vt 0.437500 0.688440
vt 0.453125 0.688440
vt 0.468750 0.688440
vt 0.484375 0.688440
vt 0.500000 0.688440
vt 0.515625 0.688440
vt 0.531250 0.688440
vt 0.546875 0.688440
vt 0.562500 0.688440
vt 0.578125 0.688440
vt 0.593750 0.688440
vt 0.609375 0.688440
vt 0.625000 0.688440
vt 0.644356 0.783956
vt 0.610485 0.733265
vt 0.559794 0.699394
vt 0.500000 0.687500
vt 0.440206 0.699394
vt 0.389515 0.733265
vt 0.355644 0.783956
vt 0.343750 0.843750
vt 0.355644 0.903544
vt 0.389515 0.954235
vt 0.440206 0.988106
vt 0.500000 1.000000
vt 0.559794 0.988106
vt 0.610485 0.954235
vt 0.644356 0.903544
vt 0.656250 0.843750
vt 0.500000 0.150000
vt 0.500000 0.837500
vt 0.625000 0.605205
vt 0.375000 0.605205
vt 0.390625 0.605205
vt 0.406250 0.605205
vt 0.421875 0.605205
vt 0.437500 0.605205
vt 0.453125 0.605205
vt 0.468750 0.605205
vt 0.484375 0.605205
vt 0.500000 0.605205
vt 0.515625 0.605205
vt 0.531250 0.605205
vt 0.546875 0.605205
vt 0.562500 0.605205
vt 0.578125 0.605205
vt 0.593750 0.605205
vt 0.609375 0.605205
vt 0.625000 0.548102
vt 0.375000 0.548102
vt 0.390625 0.548102
vt 0.406250 0.548102
vt 0.421875 0.548102
vt 0.437500 0.548102
vt 0.453125 0.548102
vt 0.468750 0.548102
vt 0.484375 0.548102
vt 0.500000 0.548102
vt 0.515625 0.548102
vt 0.531250 0.548102
vt 0.546875 0.548102
vt 0.562500 0.548102
vt 0.578125 0.548102
vt 0.593750 0.548102
vt 0.609375 0.548102
vt 0.625000 0.480586
vt 0.375000 0.480586
vt 0.390625 0.480586
vt 0.406250 0.480586
vt 0.421875 0.480586
vt 0.437500 0.480586
vt 0.453125 0.480586
vt 0.468750 0.480586
vt 0.484375 0.480586
vt 0.500000 0.480586
vt 0.515625 0.480586
vt 0.531250 0.480586
vt 0.546875 0.480586
vt 0.562500 0.480586
vt 0.578125 0.480586
vt 0.593750 0.480586
vt 0.609375 0.480586
vt 0.625000 0.410090
vt 0.375000 0.410090
vt 0.390625 0.410090
vt 0.406250 0.410090
vt 0.421875 0.410090
vt 0.437500 0.410090
vt 0.453125 0.410090
vt 0.468750 0.410090
vt 0.484375 0.410090
vt 0.500000 0.410090
vt 0.515625 0.410090
vt 0.531250 0.410090
vt 0.546875 0.410090
vt 0.562500 0.410090
vt 0.578125 0.410090
vt 0.593750 0.410090
vt 0.609375 0.410090
vn 0.826662 0.450811 -0.336749
vn 0.644896 0.427185 -0.633737
vn 0.718183 0.312148 -0.621914
vn 0.903231 0.266251 -0.336578
vn 0.357501 0.396882 -0.845386
vn 0.441232 0.380840 -0.812574
vn 0.002858 0.368390 -0.929667
vn 0.114553 0.461865 -0.879522
vn -0.360168 0.346830 -0.866018
vn -0.212124 0.542890 -0.812572
vn -0.669171 0.333156 -0.664242
vn -0.489069 0.611580 -0.621918
vn -0.874449 0.326006 -0.359247
vn -0.674120 0.657478 -0.336579
vn -0.946116 0.323828 -0.000000
vn -0.739101 0.673595 -0.000001
vn -0.874450 0.326006 0.359246
vn -0.674120 0.657478 0.336578
vn -0.669171 0.333156 0.664242
vn -0.489069 0.611580 0.621917
vn -0.360169 0.346830 0.866018
vn -0.212125 0.542890 0.812572
vn 0.002858 0.368390 0.929667
vn 0.114552 0.461865 0.879522
vn 0.357501 0.396882 0.845386
vn 0.441231 0.380840 0.812574
vn 0.644896 0.427185 0.633737
vn 0.718183 0.312148 0.621914
vn 0.826662 0.450810 0.336749
vn 0.903231 0.266251 0.336578
vn 0.888039 0.459767 0.000000
vn 0.968211 0.250134 0.000000
vn 0.594680 -0.620197 -0.511577
vn 0.706242 -0.661899 -0.251223
vn 0.000000 -1.000000 0.000000
vn 0.369764 -0.558576 -0.742474
vn 0.042658 -0.486112 -0.872855
vn -0.325071 -0.413004 -0.850739
vn -0.653816 -0.350390 -0.670635
vn -0.877264 -0.308363 -0.367860
vn -0.955929 -0.293598 -0.000000
vn -0.877264 -0.308362 0.367859
vn -0.653817 -0.350390 0.670635
vn -0.325072 -0.413004 0.850739
vn 0.042657 -0.486112 0.872855
vn 0.369763 -0.558576 0.742474
vn 0.594680 -0.620197 0.511577
vn 0.706242 -0.661898 0.251223
vn 0.736269 -0.676689 0.000000
vn 0.240744 0.970589 0.000008
vn 0.772399 0.545386 -0.325507
vn 0.600307 0.511901 -0.614483
vn 0.326677 0.458743 -0.826339
vn -0.017800 0.392129 -0.919738
vn -0.379682 0.322643 -0.867031
vn -0.693793 0.262847 -0.670495
vn -0.904254 0.223138 -0.364051
vn -0.977843 0.209340 -0.000000
vn -0.904255 0.223138 0.364051
vn -0.693793 0.262847 0.670494
vn -0.379683 0.322643 0.867031
vn -0.017801 0.392129 0.919738
vn 0.326677 0.458743 0.826340
vn 0.600306 0.511901 0.614483
vn 0.772399 0.545386 0.325507
vn 0.830696 0.556726 0.000000
vn 0.901008 0.258555 -0.348329
vn 0.707698 0.292479 -0.643133
vn 0.419938 0.345989 -0.839013
vn 0.084005 0.414753 -0.906048
vn -0.246341 0.492486 -0.834730
vn -0.519859 0.569119 -0.637064
vn -0.697703 0.628381 -0.344018
vn -0.758917 0.651187 -0.000000
vn -0.697703 0.628381 0.344017
vn -0.519859 0.569120 0.637063
vn -0.246341 0.492486 0.834730
vn 0.084004 0.414753 0.906048
vn 0.419938 0.345990 0.839013
vn 0.707697 0.292479 0.643134
vn 0.901008 0.258555 0.348329
vn 0.969032 0.246936 0.000000
vn 0.848088 0.421494 -0.321076
vn 0.674870 0.415620 -0.609762
vn 0.394169 0.414829 -0.820090
vn 0.043547 0.423914 -0.904655
vn -0.314364 0.440254 -0.841042
vn -0.615403 0.457102 -0.642135
vn -0.812739 0.468876 -0.345847
vn -0.881061 0.473002 -0.000000
vn -0.812739 0.468876 0.345847
vn -0.615403 0.457102 0.642134
vn -0.314365 0.440254 0.841042
vn 0.043546 0.423913 0.904655
vn 0.394168 0.414829 0.820090
vn 0.674870 0.415620 0.609763
vn 0.848088 0.421494 0.321076
vn 0.905364 0.424636 0.000000
s 1
g pCylinder1
usemtl initialShadingGroup
f 35/70/1 36/71/2 18/35/3 17/34/4
f 36/71/2 37/72/5 19/36/6 18/35/3
f 37/72/5 38/73/7 20/37/8 19/36/6
f 38/73/7 39/74/9 21/38/10 20/37/8
f 39/74/9 40/75/11 22/39/12 21/38/10
f 40/75/11 41/76/13 23/40/14 22/39/12
f 41/76/13 42/77/15 24/41/16 23/40/14
f 42/77/15 43/78/17 25/42/18 24/41/16
f 43/78/17 44/79/19 26/43/20 25/42/18
f 44/79/19 45/80/21 27/44/22 26/43/20
f 45/80/21 46/81/23 28/45/24 27/44/22
f 46/81/23 47/82/25 29/46/26 28/45/24
f 47/82/25 48/83/27 30/47/28 29/46/26
f 48/83/27 49/84/29 31/48/30 30/47/28
f 49/84/29 50/85/31 32/49/32 31/48/30
f 50/85/31 35/69/1 17/50/4 32/49/32
f 2/2/33 1/1/34 33/67/35
f 3/3/36 2/2/33 33/67/35
f 4/4/37 3/3/36 33/67/35
f 5/5/38 4/4/37 33/67/35
f 6/6/39 5/5/38 33/67/35
f 7/7/40 6/6/39 33/67/35
f 8/8/41 7/7/40 33/67/35
f 9/9/42 8/8/41 33/67/35
f 10/10/43 9/9/42 33/67/35
f 11/11/44 10/10/43 33/67/35
f 12/12/45 11/11/44 33/67/35
f 13/13/46 12/12/45 33/67/35
f 14/14/47 13/13/46 33/67/35
f 15/15/48 14/14/47 33/67/35
f 16/16/49 15/15/48 33/67/35
f 1/1/34 16/16/49 33/67/35
f 17/65/4 18/64/3 34/68/50
f 18/64/3 19/63/6 34/68/50
f 19/63/6 20/62/8 34/68/50
f 20/62/8 21/61/10 34/68/50
f 21/61/10 22/60/12 34/68/50
f 22/60/12 23/59/14 34/68/50
f 23/59/14 24/58/16 34/68/50
f 24/58/16 25/57/18 34/68/50
f 25/57/18 26/56/20 34/68/50
f 26/56/20 27/55/22 34/68/50
f 27/55/22 28/54/24 34/68/50
f 28/54/24 29/53/26 34/68/50
f 29/53/26 30/52/28 34/68/50
f 30/52/28 31/51/30 34/68/50
f 31/51/30 32/66/32 34/68/50
f 32/66/32 17/65/4 34/68/50
f 51/87/51 52/88/52 36/71/2 35/70/1
f 52/88/52 53/89/53 37/72/5 36/71/2
f 53/89/53 54/90/54 38/73/7 37/72/5
f 54/90/54 55/91/55 39/74/9 38/73/7
f 55/91/55 56/92/56 40/75/11 39/74/9
f 56/92/56 57/93/57 41/76/13 40/75/11
f 57/93/57 58/94/58 42/77/15 41/76/13
f 58/94/58 59/95/59 43/78/17 42/77/15
f 59/95/59 60/96/60 44/79/19 43/78/17
f 60/96/60 61/97/61 45/80/21 44/79/19
f 61/97/61 62/98/62 46/81/23 45/80/21
f 62/98/62 63/99/63 47/82/25 46/81/23
f 63/99/63 64/100/64 48/83/27 47/82/25
f 64/100/64 65/101/65 49/84/29 48/83/27
f 65/101/65 66/102/66 50/85/31 49/84/29
f 66/102/66 51/86/51 35/69/1 50/85/31
f 67/104/67 68/105/68 52/88/52 51/87/51
f 68/105/68 69/106/69 53/89/53 52/88/52
f 69/106/69 70/107/70 54/90/54 53/89/53
f 70/107/70 71/108/71 55/91/55 54/90/54
f 71/108/71 72/109/72 56/92/56 55/91/55
f 72/109/72 73/110/73 57/93/57 56/92/56
f 73/110/73 74/111/74 58/94/58 57/93/57
f 74/111/74 75/112/75 59/95/59 58/94/58
f 75/112/75 76/113/76 60/96/60 59/95/59
f 76/113/76 77/114/77 61/97/61 60/96/60
f 77/114/77 78/115/78 62/98/62 61/97/61
f 78/115/78 79/116/79 63/99/63 62/98/62
f 79/116/79 80/117/80 64/100/64 63/99/63
f 80/117/80 81/118/81 65/101/65 64/100/64
f 81/118/81 82/119/82 66/102/66 65/101/65
f 82/119/82 67/103/67 51/86/51 66/102/66
f 83/121/83 84/122/84 68/105/68 67/104/67
f 84/122/84 85/123/85 69/106/69 68/105/68
f 85/123/85 86/124/86 70/107/70 69/106/69
f 86/124/86 87/125/87 71/108/71 70/107/70
f 87/125/87 88/126/88 72/109/72 71/108/71
f 88/126/88 89/127/89 73/110/73 72/109/72
f 89/127/89 90/128/90 74/111/74 73/110/73
f 90/128/90 91/129/91 75/112/75 74/111/74
f 91/129/91 92/130/92 76/113/76 75/112/75
f 92/130/92 93/131/93 77/114/77 76/113/76
f 93/131/93 94/132/94 78/115/78 77/114/77
f 94/132/94 95/133/95 79/116/79 78/115/78
f 95/133/95 96/134/96 80/117/80 79/116/79
f 96/134/96 97/135/97 81/118/81 80/117/80
f 97/135/97 98/136/98 82/119/82 81/118/81
f 98/136/98 83/120/83 67/103/67 82/119/82
f 1/17/34 2/18/33 84/122/84 83/121/83
f 2/18/33 3/19/36 85/123/85 84/122/84
f 3/19/36 4/20/37 86/124/86 85/123/85
f 4/20/37 5/21/38 87/125/87 86/124/86
f 5/21/38 6/22/39 88/126/88 87/125/87
f 6/22/39 7/23/40 89/127/89 88/126/88
f 7/23/40 8/24/41 90/128/90 89/127/89
f 8/24/41 9/25/42 91/129/91 90/128/90
f 9/25/42 10/26/43 92/130/92 91/129/91
f 10/26/43 11/27/44 93/131/93 92/130/92
f 11/27/44 12/28/45 94/132/94 93/131/93
f 12/28/45 13/29/46 95/133/95 94/132/94
f 13/29/46 14/30/47 96/134/96 95/133/95
f 14/30/47 15/31/48 97/135/97 96/134/96
f 15/31/48 16/32/49 98/136/98 97/135/97
f 16/32/49 1/33/34 83/120/83 98/136/98
